HIERARCHY
ROOT pelvis
{
  OFFSET 0 100 0
  CHANNELS 6 Xposition Yposition Zposition Zrotation Xrotation Yrotation
  JOINT pelvis_right_femur
  {
    OFFSET -10.78128 -3.44521 -0.5502486
    CHANNELS 3 Zrotation Xrotation Yrotation
    JOINT right_femur_tibia
    {
      OFFSET -0.8047443 -44.0398 -0.1307829
      CHANNELS 3 Zrotation Xrotation Yrotation
      JOINT right_tibia_foot
      {
        OFFSET 3.006224 -47.83518 -5
        CHANNELS 3 Zrotation Xrotation Yrotation
        End Site
        {
          OFFSET 0 -5 15
        }
      }
    }
  }
  JOINT pelvis_left_femur
  {
    OFFSET 10.78128 -3.44521 -0.5502486
    CHANNELS 3 Zrotation Xrotation Yrotation
    JOINT left_femur_tibia
    {
      OFFSET 0.8047443 -44.0398 -0.1307829
      CHANNELS 3 Zrotation Xrotation Yrotation
      JOINT left_tibia_foot
      {
        OFFSET -4.370144 -48.10324 -4.275266
        CHANNELS 3 Zrotation Xrotation Yrotation
        End Site
        {
          OFFSET 0 -5 15
        }
      }
    }
  }
  JOINT pelvis_spine1
  {
    OFFSET 0 6.468898 -3.129235
    CHANNELS 3 Zrotation Xrotation Yrotation
    JOINT spine1
    {
      OFFSET 0 23.15396 4.99043
      CHANNELS 3 Zrotation Xrotation Yrotation
      JOINT spine2
      {
        OFFSET 0 20.79997 -5.064912
        CHANNELS 3 Zrotation Xrotation Yrotation
        JOINT neck
        {
          OFFSET 0 14.38658 9.616178
          CHANNELS 3 Zrotation Xrotation Yrotation
          End Site
          {
            OFFSET 0 20 0
          }
        }
      }
      JOINT right_manubrium
      {
        OFFSET -5.722621 16.35077 3.967754
        CHANNELS 3 Zrotation Xrotation Yrotation
        JOINT right_clavicle
        {
          OFFSET -13.16364 1.694482 -4.693211
          CHANNELS 3 Zrotation Xrotation Yrotation
          JOINT right_humerus
          {
            OFFSET -28.5034 -0.3100689 -2.792744
            CHANNELS 3 Zrotation Xrotation Yrotation
            JOINT right_radius
            {
              OFFSET -25.15693 0.02248979 -1.271978
              CHANNELS 3 Zrotation Xrotation Yrotation
              End Site
              {
                OFFSET -15 0 0
              }
            }
          }
        }
      }
      JOINT left_manubrium
      {
        OFFSET 5.722621 16.35077 3.967754
        CHANNELS 3 Zrotation Xrotation Yrotation
        JOINT left_clavicle
        {
          OFFSET 13.16364 1.694482 -4.693211
          CHANNELS 3 Zrotation Xrotation Yrotation
          JOINT left_humerus
          {
            OFFSET 29.39168 -1.063119 -2.237045
            CHANNELS 3 Zrotation Xrotation Yrotation
            JOINT left_radius
            {
              OFFSET 24.59957 -0.9528479 0.9047498
              CHANNELS 3 Zrotation Xrotation Yrotation
              End Site
              {
                OFFSET 15 -0 -0
              }
            }
          }
        }
      }
    }
  }
}
MOTION
Frames: 21
Frame Time: 0.0416666666667
0 103.5113 0 1.262453 -0.9966924 -0.1744665 3.294888 -14.77702 8.277399 -0 34.18893 -0 -5.628637 -16.26996 -4.254771 -6.818287 12.60723 -24.72876 -0 4.490265 -0 2.57507 -20.24534 24.50346 -4.332266 -3.701671 3.696284 3.167105 8.676001 -8.717681 0.05975349 22.6368 8.201133 4.312718 -23.91317 8.059944 7.443906 -19.88891 12.09464 85.92487 36.86416 -22.39926 -0 0 16.1983 -8.038631 8.084188 5.550906 4.254872 -19.37208 -3.256841 -100.5635 38.57118 28.99919 0 0 -18.63406 -10.10631 15.98442 25.03963
0.1772283 103.3633 1.145327 0.9069442 -1.329169 -0.2787124 3.641521 -15.52699 8.456032 -0 35.90915 -0 -5.875885 -15.6529 -4.62713 -6.55953 12.88097 -24.15406 -0 5.00985 -0 2.089267 -20.52397 23.98103 -4.016255 -3.391442 3.512834 3.056341 8.579431 -8.600433 0.3332029 22.69539 7.849968 3.919973 -23.99374 8.24356 6.791189 -19.80152 11.8544 86.27915 35.41232 -22.05195 -0 0 16.0279 -7.670443 7.5993 5.302303 4.261703 -19.334 -3.003331 -99.88134 38.28113 28.31177 0 0 -18.63547 -9.278154 16.01791 24.43802
0.3247513 103.0716 2.805594 0.383212 -1.432363 -0.2102076 3.882747 -18.88392 7.445901 -0 34.81189 -0 -6.256841 -13.42192 -4.88431 -6.154595 13.34304 -22.43303 -0 5.786782 -0 0.04472769 -21.90481 21.50226 -3.493076 -2.405884 3.19793 2.86555 8.200965 -8.455828 0.7314861 22.6733 7.494792 3.602017 -23.87325 8.361425 5.678316 -19.26223 11.36986 86.9447 33.31595 -21.84459 -0 0 15.36771 -8.008262 7.162707 5.406574 4.570286 -19.63511 -2.861838 -97.8851 38.0827 26.13542 0 0 -20.23808 -8.594922 15.43032 24.31473
0.4588391 102.6681 4.732274 -0.01582707 -0.7989583 -0.06641065 4.318413 -21.93681 7.202223 -0 32.35587 -0 -6.258549 -12.80646 -4.874485 -5.872011 13.78098 -22.00724 -0 6.155096 -0 -1.415013 -23.15249 19.99564 -3.132263 -1.828746 3.174179 2.832145 7.670256 -8.372997 1.010378 22.44995 7.47046 3.598128 -24.17164 8.665135 5.305931 -18.85795 11.03784 87.03147 32.83353 -21.8824 -0 0 15.28871 -7.576853 7.144102 5.072205 4.979678 -19.74582 -2.487633 -97.36081 38.27989 25.46157 0 0 -21.35663 -8.311801 15.34102 24.45979
0.574602 102.1478 6.969331 -0.4081139 0.04149736 0.1659571 4.801473 -25.16518 6.946507 -0 29.43411 -0 -6.298361 -11.97434 -4.769142 -5.56865 14.29176 -21.55936 -0 6.710087 -0 -2.936779 -24.34785 18.35059 -2.794515 -1.261853 3.121942 2.831612 7.098821 -8.322655 1.248668 22.16771 7.519259 3.681955 -24.54923 8.957715 5.09804 -18.33421 10.74384 87.04184 32.76614 -21.98486 -0 0 15.07042 -7.18225 7.32619 4.754145 5.405071 -19.87195 -2.103733 -96.73785 38.3788 24.64884 0 0 -22.47756 -7.873752 15.33757 24.38057
0.6705182 101.5464 9.551181 -0.7931143 1.076671 0.4939325 5.353034 -28.274 6.746726 -0 26.39883 -0 -6.385311 -10.92016 -4.549612 -5.253234 14.81089 -21.12173 -0 7.470085 -0 -4.386599 -25.30904 16.69362 -2.481177 -0.7638807 3.035692 2.874318 6.542979 -8.316159 1.409177 21.819 7.657246 3.852864 -25.04104 9.223252 5.109338 -17.74221 10.53227 86.96402 33.20017 -22.13419 -0 0 14.72033 -6.844311 7.732439 4.499632 5.793213 -19.98777 -1.725072 -96.09281 38.30241 23.82669 0 0 -23.45424 -7.25055 15.41013 24.02309
0.7430598 100.9103 12.55544 -1.198712 2.164503 0.9279686 5.970011 -31.0526 6.533524 -0 23.59178 -0 -6.576166 -9.508305 -4.26826 -4.896919 15.32672 -20.50757 -0 8.686013 -0 -5.791746 -25.84164 14.95672 -2.149084 -0.3089122 2.853524 2.948978 6.045108 -8.346532 1.488926 21.44459 7.83234 4.050199 -25.56831 9.417626 5.261312 -17.05744 10.40342 86.87024 33.93355 -22.26316 -0 0 14.12817 -6.675558 8.314826 4.394338 6.085912 -20.07493 -1.400542 -95.24514 37.91262 22.79784 0 0 -24.19661 -6.33926 15.4696 23.26067
0.7925161 100.304 16.07317 -1.639182 3.193212 1.465247 6.650582 -33.17569 6.294448 -0 21.26746 -0 -6.875605 -7.841592 -3.963328 -4.49215 15.77373 -19.65066 -0 10.63168 -0 -7.10147 -25.68354 13.19583 -1.760621 0.08517471 2.556924 3.057134 5.651236 -8.411293 1.469317 21.07567 8.018975 4.231497 -26.06984 9.504707 5.526072 -16.29741 10.37241 86.79036 34.86419 -22.33175 -0 0 13.26345 -6.732597 9.032651 4.503372 6.220564 -20.09566 -1.171721 -94.19492 37.12681 21.56731 0 0 -24.5797 -5.136639 15.41529 22.0717
0.826022 99.81143 20.19324 -2.112053 3.997414 2.072651 7.361395 -34.20437 6.01091 -0 19.67066 -0 -7.257755 -6.184533 -3.697948 -4.046272 16.02198 -18.50421 -0 13.73371 -0 -8.235473 -24.50958 11.5274 -1.276737 0.3894489 2.161161 3.195082 5.420979 -8.500927 1.337425 20.76257 8.178177 4.342315 -26.44578 9.441843 5.855653 -15.5046 10.44943 86.7607 35.83233 -22.30872 -0 0 12.13013 -7.063803 9.80467 4.879367 6.127429 -20.00978 -1.088272 -93.0035 35.89733 20.20793 0 0 -24.48042 -3.709036 15.1154 20.51593
0.8602479 99.53883 24.96792 -2.576815 4.374178 2.667494 8.019025 -33.66333 5.666965 -0 18.95309 -0 -7.64976 -4.971283 -3.554601 -3.596999 15.83947 -17.07663 -0 18.54548 -0 -9.092694 -22.03327 10.13685 -0.6819004 0.5669156 1.753523 3.347021 5.425767 -8.596052 1.099181 20.56989 8.260574 4.332264 -26.57035 9.193761 6.183388 -14.76468 10.63382 86.82077 36.63276 -22.19744 -0 0 10.80594 -7.683756 10.50889 5.522487 5.7562 -19.80199 -1.189989 -91.81546 34.2704 18.89977 0 0 -23.84977 -2.228356 14.45082 18.79227
0.9168217 99.60752 30.36746 -2.93299 4.114543 3.110004 8.483138 -31.24334 5.251465 -0 19.03251 -0 -7.954147 -4.659353 -3.608962 -3.217227 14.91153 -15.44118 -0 25.61587 -0 -9.602851 -18.23804 9.236845 -0.03048562 0.605153 1.505797 3.473996 5.725725 -8.659465 0.8050443 20.57495 8.207539 4.18225 -26.30664 8.755313 6.423736 -14.18056 10.89903 86.99998 37.04117 -22.03993 -0 0 9.438686 -8.558698 11.01481 6.323054 5.127162 -19.52329 -1.478923 -90.79387 32.42092 17.83863 0 0 -22.79073 -0.9154155 13.43037 17.17478
1.006163 100.1217 36.24512 -3.01961 3.091618 3.237795 8.588658 -27.0504 4.766055 -0 19.44922 -0 -8.11318 -5.401912 -3.853041 -2.997363 12.93651 -13.73667 -0 35.05274 -0 -9.764773 -13.65754 9.010495 0.5091166 0.5603898 1.623131 3.507733 6.323708 -8.621908 0.5622554 20.84978 7.973392 3.945066 -25.54824 8.176181 6.503005 -13.8104 11.18702 87.26085 36.93095 -21.85589 -0 0 8.209293 -9.630616 11.27256 7.055565 4.380159 -19.30222 -1.900643 -90.03715 30.60696 17.08607 0 0 -21.55062 0.103357 12.30411 15.81524
1.109252 101.1051 42.35055 -2.691508 1.372396 2.959022 8.238673 -21.63177 4.24123 -0 19.4941 -0 -8.148438 -6.800752 -4.142023 -2.980775 9.731323 -12.12755 -0 45.85715 -0 -9.625244 -9.33843 9.552684 0.7117044 0.5611006 2.217914 3.364293 7.133047 -8.377043 0.4948968 21.40877 7.560108 3.736622 -24.29526 7.557601 6.393091 -13.65281 11.43506 87.43869 36.37918 -21.51015 -0 0 7.320717 -10.88022 11.37083 7.526291 3.740024 -19.25606 -2.364245 -89.56812 29.02785 16.55674 0 0 -20.36022 0.8742618 11.45713 14.62846
1.183961 102.4423 48.40702 -1.963165 -0.7167907 2.334622 7.50922 -15.69496 3.747072 -0 18.64838 -0 -8.093619 -8.172579 -4.263552 -3.08165 5.25305 -10.71826 -0 55.72214 -0 -9.228851 -6.25714 10.78916 0.4803299 0.7237405 3.219785 2.996036 8.009953 -7.839579 0.6461217 22.13387 7.03907 3.643095 -22.75046 7.005158 6.112669 -13.75292 11.62997 87.29034 35.62298 -20.6978 -0 0 7.044888 -12.33905 11.46069 7.79541 3.377944 -19.36527 -2.781195 -89.40836 27.72677 16.27239 0 0 -19.30835 1.476597 11.05302 13.5242
1.201747 103.881 54.21448 -1.045653 -2.693516 1.53322 6.627537 -9.807901 3.350475 -0 16.85339 -0 -7.922362 -9.141299 -4.083568 -3.087697 -0.3656705 -9.476638 -0 61.99583 -0 -8.605033 -4.740159 12.4528 -0.05390215 1.058511 4.420831 2.443835 8.818866 -7.039213 0.928155 22.79893 6.519593 3.638524 -21.28105 6.57486 5.694515 -14.2498 11.81275 86.64909 34.8788 -19.15902 -0 0 7.655276 -14.02175 11.61962 8.166635 3.310638 -19.48748 -3.083573 -89.57566 26.63993 16.46334 0 0 -18.4058 1.882166 10.88671 12.63156
1.177516 105.1029 59.71246 -0.2066415 -4.158816 0.7094173 5.82846 -4.281137 3.068636 -0 14.38124 -0 -7.567346 -9.874454 -3.625188 -2.76593 -6.736166 -8.259029 -0 63.00597 -0 -7.801581 -4.501669 14.21869 -0.6480984 1.473123 5.587761 1.819831 9.453145 -6.118517 1.198609 23.21572 6.080475 3.609843 -20.20102 6.272601 5.154456 -15.24384 12.01048 85.50746 34.20094 -16.85587 -0 0 9.245888 -15.86997 11.80768 8.921175 3.441461 -19.47036 -3.220887 -90.01497 25.70223 17.30434 0 0 -17.63919 2.012331 10.64575 12.15429
1.163257 105.8228 64.9725 0.3630492 -4.943891 -0.05342015 5.246428 0.8012236 2.882686 -0 11.64862 -0 -6.961308 -10.84362 -3.023429 -1.970065 -13.23806 -6.925275 -0 58.56128 -0 -6.92567 -5.0167 15.85086 -1.097952 1.838441 6.539849 1.243358 9.823298 -5.240852 1.362458 23.3309 5.741681 3.442593 -19.61271 6.090885 4.491886 -16.67759 12.18687 83.98422 33.49033 -13.95577 -0 0 11.66864 -17.75758 11.91891 10.12494 3.652065 -19.20683 -3.15802 -90.61632 24.90683 18.72854 0 0 -16.92661 1.832399 10.16546 12.17454
1.219079 105.867 70.14761 0.5905979 -5.106792 -0.7333745 4.885447 5.485672 2.763072 -0 9.147674 -0 -6.074176 -12.44374 -2.422799 -0.7204063 -19.16042 -5.46055 -0 49.79642 -0 -6.138682 -5.782684 17.23288 -1.30322 2.039019 7.184458 0.7896498 9.866188 -4.514208 1.408047 23.21564 5.48645 3.091834 -19.41222 6.026899 3.7102 -18.33718 12.2557 82.28035 32.59658 -10.76047 -0 0 14.59256 -19.53376 11.84863 11.62388 3.85357 -18.64344 -2.891314 -91.28634 24.30047 20.48781 0 0 -16.09832 1.373922 9.477507 12.62387
1.389042 105.2134 75.41971 0.5233203 -4.860763 -1.347422 4.629971 9.842959 2.683249 -0 7.414294 -0 -4.951945 -14.66705 -1.902703 0.7320076 -23.88758 -4.053794 -0 38.80489 -0 -5.589708 -6.435718 18.33788 -1.284182 1.998096 7.532729 0.4673994 9.583655 -3.964874 1.39112 23.00232 5.292438 2.612482 -19.38581 6.076659 2.839169 -19.92844 12.13158 80.65236 31.43266 -7.649901 -0 0 17.58825 -21.0768 11.54312 13.14133 3.99937 -17.79621 -2.468655 -91.98164 23.93255 22.29369 0 0 -14.96178 0.7210597 8.740634 13.34143
1.694879 103.9975 80.96358 0.3112919 -4.471455 -1.930773 4.288213 13.85159 2.640777 -0 6.990817 -0 -3.727598 -16.93129 -1.470372 1.924078 -27.05248 -3.06892 -0 28.09794 -0 -5.329633 -6.804027 19.18822 -1.169321 1.691945 7.688589 0.2269883 9.080219 -3.555137 1.394983 22.80618 5.153097 2.143536 -19.3372 6.224963 1.958932 -21.17914 11.78886 79.3633 30.06568 -5.017736 -0 0 20.21446 -22.33986 11.03248 14.40843 4.077433 -16.77104 -1.989839 -92.68309 23.798 23.92678 0 0 -13.43515 -0.009999415 8.125686 14.15239
2.142912 102.4891 86.92072 0.1585167 -4.166904 -2.507521 3.667958 17.30448 2.672475 -0 8.390148 -0 -2.585823 -18.18297 -1.117275 2.357505 -28.56825 -2.857811 -0 19.92855 -0 -5.266715 -6.919623 19.8102 -1.145245 1.158477 7.795396 -0.007561615 8.561237 -3.22828 1.486454 22.6718 5.08004 1.848878 -19.18078 6.437918 1.206497 -21.92377 11.29708 78.61449 28.72019 -3.19595 -0 0 22.10261 -23.3673 10.43719 15.26584 4.09125 -15.75798 -1.588272 -93.33766 23.8166 25.26456 0 0 -11.66065 -0.6914808 7.717311 14.92309
